<?xml version="1.0" encoding="UTF-8"?>
<svg id="Layer_1" data-name="Layer 1" xmlns="http://www.w3.org/2000/svg" viewBox="0 0 1406.17 332.42">
  <defs>
    <style>
      .cls-1 {
        fill: #612522;
      }

      .cls-2 {
        fill: #602421;
      }

      .cls-3 {
        fill: #602522;
      }
    </style>
  </defs>
  <path class="cls-2" d="M346,169h35c.04,14.11-.1,28.2-.44,42.3-.05,1.94-.09,3.89-.13,5.83-.12,5.04-.24,10.07-.36,15.11-.12,5.17-.24,10.34-.36,15.51-.23,10.09-.47,20.17-.71,30.26.18-.56.37-1.11.56-1.68,4.49-13.5,8.98-27.01,13.47-40.51,2.17-6.53,4.34-13.06,6.51-19.59,2.09-6.3,4.19-12.59,6.28-18.89.8-2.41,1.6-4.82,2.4-7.22,1.12-3.36,2.23-6.72,3.35-10.08q.5-1.51,1.01-3.05c.3-.91.61-1.82.92-2.76q.4-1.19.8-2.41.69-1.81,1.69-2.81h34v108q15.07-46.63,29.95-93.32c.27-.86.54-1.71.82-2.59.5-1.58,1-3.15,1.49-4.73q1.62-5.13,2.74-7.35h35q-3.38,11.25-4.8,15.13-.48,1.33-.98,2.68t-1.04,2.82-1.12,3.05c-1.21,3.3-2.42,6.59-3.63,9.88-.85,2.33-1.71,4.66-2.56,6.98-2.2,5.99-4.4,11.98-6.6,17.97-1.6,4.37-3.21,8.73-4.81,13.1-7.61,20.75-15.24,41.49-22.89,62.22-.76,2.05-1.51,4.1-2.27,6.16-1.04,2.82-2.08,5.65-3.13,8.47q-.46,1.26-.94,2.55-2.13,5.76-3.25,7.99h-38c-.03-2.77-.05-5.54-.08-8.39-.08-9.17-.17-18.34-.26-27.52-.06-5.56-.11-11.12-.16-16.68-.05-5.37-.1-10.74-.16-16.11-.02-2.04-.04-4.09-.06-6.13-.02-2.87-.05-5.74-.09-8.62,0-.84-.01-1.67-.02-2.54-.07-5.4-.52-10.66-1.19-16.02-.4,1.14-.79,2.28-1.2,3.46-7.97,23-15.99,45.97-24.11,68.91-.37,1.03-.73,2.06-1.11,3.13-1.04,2.94-2.09,5.89-3.13,8.83-.31.86-.61,1.73-.93,2.61-.29.81-.58,1.63-.88,2.47-.25.7-.49,1.39-.75,2.11-1.27,3.5-2.59,6.99-3.9,10.47h-39c-.89-33.66-1.13-67.27-1.07-100.94.01-6.58.01-13.16.02-19.74.01-12.78.03-25.55.05-38.33Z"/>
  <path class="cls-2" d="M562.38,207.69c.8-.02,1.6-.03,2.42-.05,9.51,0,17.24,2.84,24.2,9.36,9.75,10.85,11.62,23.78,11,38-.37,3.87-.88,7.71-1.44,11.56-.13,1-.27,1.99-.41,3.02q-1.02,7.29-2.15,8.42c-1.81.09-3.62.12-5.44.11-1.16,0-2.32,0-3.52,0q-1.9,0-3.83-.02c-1.29,0-2.57,0-3.9,0-3.42,0-6.85-.01-10.27-.02-3.49-.01-6.98-.01-10.48-.02-6.86-.01-13.71-.03-20.57-.05.09,2.21.2,4.42.31,6.62.06,1.23.12,2.46.18,3.73.65,4.66,2,8.18,5.4,11.48,3.93,2.17,7.78,2.09,12.11,1.16,4.6-2.83,7.86-6.66,11-11,4.79,1.66,8.86,4.25,13.12,6.94.72.44,1.43.89,2.17,1.34q1.03.65,2.09,1.31c.62.39,1.25.78,1.89,1.18,1.78,1.26,3.23,2.64,4.73,4.23-8.3,12.65-17.72,22.92-32.95,26.53-11.84,1.82-24.47,1.21-34.86-5.22-10.2-7.49-15.48-17.06-17.53-29.36-3.07-23.03,2.19-47.48,15.25-66.78,10.71-13.91,23.56-22.56,41.46-22.48ZM548,241c-2.97,5.15-4.89,10.17-6,16,4.48.03,8.96.05,13.44.06,1.28,0,2.56.02,3.88.03,1.21,0,2.43,0,3.68,0,1.13,0,2.25.01,3.41.02q2.52.18,3.59-1.11c.15-2.23.22-4.46.25-6.69.03-1.22.05-2.44.08-3.7-.36-3.93-1.24-6.28-3.33-9.61-3.12-2.08-5.08-2.62-8.81-2.49-4.51,1.01-7.36,3.98-10.19,7.49Z"/>
  <path class="cls-2" d="M986.77,184.89c.75,0,1.5.01,2.27.02.81,0,1.62,0,2.45,0,.85,0,1.7.02,2.58.03.85,0,1.71,0,2.59.01,2.12.01,4.23.03,6.35.05-.72,10.11-2.37,20-4,30h18c-.46,5.45-.93,10.63-2,16h-19c-.38,2.33-.75,4.67-1.14,7.07-.38,2.36-.76,4.72-1.14,7.08-.27,1.69-.54,3.37-.81,5.06-1.4,8.74-2.82,17.47-4.42,26.17q-3.31,17.69-3.49,35.61c5.48,1.83,10.45,1.11,16,0-.33,4.95-.66,9.9-1,15-7.08,4.04-15.39,4.24-23.29,2.5-4.83-1.86-8.64-5.15-10.8-9.86-3.42-9.89-1.23-19.89.59-29.89.27-1.56.54-3.11.81-4.67.72-4.15,1.47-8.3,2.21-12.45.65-3.63,1.3-7.26,1.94-10.89,1.82-10.25,3.67-20.5,5.53-30.74-2.48-.03-4.96-.05-7.44-.06-.71,0-1.41-.02-2.14-.03-1.81,0-3.61.04-5.42.09-.33.33-.66.66-1,1-1.69.25-3.37.47-5.06.69-6.93,1.24-11.24,3.93-15.62,9.43-5.3,7.65-8.77,15.32-10.8,24.38-.21.9-.42,1.81-.63,2.74-2.45,10.87-4.29,21.84-6.13,32.83-.53,3.1-1.05,6.2-1.58,9.3-.32,1.9-.65,3.81-.96,5.71q-.22,1.28-.44,2.58-.19,1.12-.38,2.26c-.38,2.05-.89,4.07-1.39,6.09h-20c.43-2.5.87-5,1.31-7.57,1.45-8.37,2.9-16.74,4.35-25.11.88-5.06,1.75-10.12,2.63-15.19,3.76-21.68,7.51-43.36,10.71-65.13h19c-.66,5.94-1.32,11.88-2,18,.97-1.67,1.94-3.34,2.94-5.06,4.55-7.16,10.01-12.1,18.06-14.94q3.62-.75,7-1l3,2c2.59.3,5.09.51,7.69.62.7.04,1.4.08,2.13.12,1.73.09,3.46.18,5.19.26.04-.67.07-1.34.11-2.03.44-6.46,1.27-12.79,2.39-19.16.13-.75.26-1.51.4-2.29q1.17-6.47,3.87-6.64ZM963,218l1,3-1-3ZM962,223l1,4-1-4Z"/>
  <path class="cls-2" d="M691.49,216.54q.75.73,1.51,1.46c0,4.33-2.57,6.6-5.19,9.81q-.72.91-1.46,1.83c-3.07,3.83-6.2,7.6-9.35,11.36-2.01-1-4.02-2.01-6.01-3.07-5.69-2.83-10.65-3.96-16.99-2.93q-3.65,1.26-6,4c-1,2.72-1.39,5.12-1,8,1.87,3.93,3.72,5.8,7.5,7.88.88.51,1.77,1.01,2.68,1.54.93.52,1.86,1.05,2.82,1.59,8.99,5.17,18.33,11.26,21.54,21.71,2.6,12.94,1.43,24-5.54,35.29q-2.38,2.75-5,5-.77.74-1.55,1.49c-9.96,9.24-22.23,11.09-35.38,10.76-13.58-.64-24.65-5.78-35.07-14.25,1.28-2.75,2.66-4.98,4.64-7.28.51-.6,1.02-1.19,1.55-1.81q.8-.92,1.62-1.85c.52-.61,1.04-1.22,1.58-1.84,3.07-3.56,6.24-6.94,9.61-10.22.59.48,1.18.96,1.79,1.46q1.19.95,2.39,1.91c.78.63,1.55,1.25,2.36,1.9,5.88,4.13,11.45,4.41,18.46,3.73,3.09-1.26,4.39-2.15,6.31-4.81,1.32-4.22,1.25-7.08-.76-11.05-2.95-4.23-7.34-6.16-11.8-8.52-9.31-5.17-17.48-10.04-21.12-20.59-2.17-10.54-1.6-21.39,3.38-31.03.33-.64.65-1.28.99-1.94,5.74-9.36,16.89-14.89,27.17-17.64,15.76-2.34,30.95-.94,44.32,8.11Z"/>
  <path class="cls-2" d="M726,169c5.9-.07,11.81-.13,17.71-.16,2-.01,4.01-.04,6.01-.06q29.73-.38,41.18,9.94c8.21,8.49,9.44,17.37,9.54,28.79.01.96.02,1.92.03,2.91-.17,13.8-4.92,27.68-14.49,37.84-9.37,8.26-20.56,11.9-32.91,11.84q-1.93,0-3.91,0c-1.35,0-2.69-.02-4.04-.03-1.37,0-2.74,0-4.11-.01-3.34-.01-6.68-.03-10.02-.05-.16.97-.31,1.94-.47,2.94-2.72,16.93-5.45,33.85-8.34,50.75-.21,1.22-.41,2.44-.63,3.7-.19,1.11-.38,2.23-.58,3.37-.17.97-.33,1.94-.5,2.94q-.48,2.3-1.48,4.3h-20c1.29-10.02,2.78-19.97,4.52-29.92.25-1.42.49-2.84.74-4.26.66-3.81,1.32-7.61,1.99-11.41.7-4,1.39-7.99,2.09-11.99,1.31-7.54,2.63-15.09,3.94-22.63,1.5-8.6,3-17.19,4.49-25.79,3.07-17.66,6.15-35.33,9.23-52.99ZM743,187c-1.29,7.49-2.57,14.99-3.85,22.48-.44,2.55-.87,5.1-1.31,7.65-.63,3.66-1.25,7.32-1.88,10.98-.2,1.14-.39,2.29-.6,3.47-.18,1.06-.36,2.12-.55,3.21q-.24,1.4-.48,2.83-.41,2.47-.34,5.37c3.79.12,7.58.19,11.38.25,1.06.03,2.12.07,3.21.1,8.39.1,15.37-1.09,22.03-6.46,9.01-10.91,10.66-21.97,9.38-35.89-1.52-6.04-5-9.49-10-13-3.12-1.04-5.27-1.11-8.54-1.1q-1.61,0-3.25,0c-1.12,0-2.24.02-3.39.03q-1.7,0-3.43.01c-2.79.01-5.59.03-8.38.05Z"/>
  <path class="cls-2" d="M113,214h217v26c-24.86.23-49.72.41-74.58.52-11.54.05-23.09.12-34.63.24-10.06.1-20.13.16-30.19.19-5.33.01-10.65.04-15.98.12-5.02.07-10.04.09-15.05.07-1.84,0-3.67.02-5.51.06q-13.88.28-19.3-3.39c-2.49-2.48-4.61-5.03-6.75-7.8-1.18-1.04-2.38-2.05-3.62-3q-1.18-.99-2.38-2v-2h-2q-1.73-1.71-3.62-3.94c-.63-.73-1.26-1.46-1.91-2.21q-1.46-1.85-1.46-2.85Z"/>
  <path class="cls-2" d="M1288,216c9.45,7.26,13.81,17.37,15.41,28.94,2.43,23.81-3.65,49.41-17.41,69.06-7.08,8.44-15.69,16.4-27,18-10.04.7-18.84.6-27.18-5.62-10.26-9.27-13.1-21.13-14.04-34.42-.76-24.04,6.66-50.17,23.21-67.96,12.17-11.72,31.62-17.78,47-8ZM1253.5,236.94c-12.38,16.73-16.95,39.59-15.5,60.06,1.17,7.04,2.83,12.87,8.75,17.31,4.77,1.46,8.7,1.34,13.23-.56,12.57-7.29,17.66-21.82,21.21-35.14,3.24-14.4,6.04-31.84-2.12-45.17-2.56-3.03-4.5-4.22-8.43-4.77-8.04-.13-11.94,2.12-17.13,8.27Z"/>
  <path class="cls-2" d="M869,216c9.45,7.26,13.81,17.37,15.41,28.94,2.43,23.81-3.65,49.41-17.41,69.06-7.08,8.44-15.69,16.4-27,18-10.04.7-18.84.6-27.18-5.62-10.26-9.27-13.1-21.13-14.04-34.42-.76-24.04,6.66-50.17,23.21-67.96,12.17-11.72,31.62-17.78,47-8ZM834.5,236.94c-12.38,16.73-16.95,39.59-15.5,60.06,1.17,7.04,2.83,12.87,8.75,17.31,4.77,1.46,8.7,1.34,13.23-.56,12.57-7.29,17.66-21.82,21.21-35.14,3.24-14.4,6.04-31.84-2.12-45.17-2.56-3.03-4.5-4.22-8.43-4.77-8.04-.13-11.94,2.12-17.13,8.27Z"/>
  <path class="cls-2" d="M1395.06,213.88c5.84,3.85,9.5,10.37,10.94,17.12.64,12.78-.54,24.86-2.81,37.41-.29,1.67-.58,3.34-.87,5.02-.75,4.33-1.52,8.66-2.29,12.99-.63,3.56-1.25,7.11-1.86,10.67-.74,4.25-1.48,8.5-2.23,12.75q-.21,1.21-.43,2.45c-.4,2.27-.8,4.54-1.21,6.8-.23,1.29-.46,2.58-.69,3.9q-.61,3-1.61,5h-19c1.09-9.97,2.61-19.78,4.38-29.65.22-1.23.44-2.46.67-3.73.92-5.14,1.84-10.29,2.79-15.43q5.72-23.08,2.32-45.56c-2.65-3.22-4.15-3.5-8.22-4-6.62.63-11.63,2.92-16.21,7.8-7.65,10.06-10.38,20.39-12.54,32.7-.25,1.37-.5,2.74-.74,4.11-.68,3.76-1.35,7.52-2.01,11.28-.46,2.63-.93,5.26-1.39,7.89-2.04,11.53-4.05,23.07-6.05,34.6h-20c.4-2.29.8-4.57,1.21-6.93,1.34-7.7,2.68-15.4,4.01-23.1.81-4.65,1.61-9.3,2.42-13.95,4-22.98,7.85-45.96,11.36-69.02h19c-.33,4.95-.66,9.9-1,15q1.45-2.01,2.94-4.06c9.3-11.94,24.22-19.24,39.12-12.06Z"/>
  <path class="cls-2" d="M1084,216c6.08,5.13,9.14,11.27,10.32,19.13.15,2.2.19,4.37.17,6.57,0,.84,0,1.69-.01,2.56-.33,12.98-3.03,25.75-5.35,38.49-.92,5.16-1.83,10.32-2.74,15.48-.22,1.22-.43,2.43-.66,3.69-1.53,8.68-2.76,17.32-3.73,26.08h-17c.33-4.29.66-8.58,1-13-.87,1.22-1.73,2.43-2.62,3.69-4.63,6.12-9.6,10.71-17.38,12.31-7.9.76-15.54,1.14-22-4-7.03-6.65-8.95-13.52-9.25-23.06.19-12.44,3.69-22.76,12.13-32,13.28-12.47,30.75-14.18,48.12-13.94q1.79-13-2-25c-3.9-3.32-7.8-4.32-12.88-4.06-8.27,1.26-15.06,5.47-21.12,11.06-1.37-1.57-2.72-3.16-4.06-4.75-.75-.88-1.51-1.76-2.29-2.67q-1.65-2.58-1.57-4.73c3.93-7.95,15.81-12.69,23.83-15.53,9.47-1.46,20.87-1.79,29.08,3.68ZM1040,282c-5.45,6.6-7.38,13.78-6.88,22.25.57,4.27,1.57,6.81,4.88,9.75,3.36,2.27,6,2.07,9.88,1.5,7.7-1.84,11.46-6.23,15.81-12.62,5.63-9.33,7.87-19.17,9.31-29.88-12.33-.49-23.83-.21-33,9Z"/>
  <path class="cls-3" d="M227.9,299.1c3.61.04,7.23.06,10.84.09,6.78.06,13.57.12,20.35.18,7.75.07,15.5.14,23.25.2,15.89.13,31.77.28,47.66.42v26c-18.12.33-36.23.63-54.35.86-8.41.11-16.82.23-25.24.39-7.33.14-14.67.25-22,.33-3.88.04-7.76.09-11.64.19-3.66.09-7.31.13-10.97.15-1.97.02-3.95.08-5.92.14q-8.56-.03-12.41-3.03c-2.01-2.25-3.75-4.55-5.47-7.03-1.64-1.69-3.31-3.36-5-5-1.94-1.89-3.88-3.79-5.81-5.69-.5-.49-1-.97-1.52-1.47-1.26-1.24-2.47-2.54-3.67-3.84v-2c20.65-.8,41.23-1.11,61.9-.9Z"/>
  <path class="cls-2" d="M284.49,170.98c4.46-.02,8.93-.04,13.39-.05,1.66,0,3.33-.01,4.99-.02,2.31-.01,4.62-.01,6.93-.02,1.3,0,2.6,0,3.94-.01,5.43.15,10.85.67,16.26,1.12v25c-12.58,1.25-25.11,1.15-37.74,1.13-2.41,0-4.83,0-7.24,0-5.05,0-10.1,0-15.15,0-6.41,0-12.82,0-19.23,0-4.99,0-9.98,0-14.97,0-2.36,0-4.72,0-7.08,0-11.87,0-23.73-.08-35.6-.52q-1.47-.05-2.97-.09c-.9-.04-1.79-.08-2.72-.12-.79-.03-1.57-.06-2.39-.09q-1.92-.32-3.92-2.32c2.27-3.08,4.54-6.17,6.81-9.25.64-.87,1.29-1.75,1.95-2.64.62-.84,1.24-1.69,1.88-2.56.57-.78,1.14-1.55,1.73-2.35q.8-1.09,1.63-2.2c.38-.69.76-1.39,1.15-2.1q1.85-1.9,5.02-2.42,1.97-.01,3.98-.03,1.09-.02,2.21-.03c2.43-.03,4.85-.03,7.28-.03,1.72-.02,3.44-.03,5.15-.05,4.56-.04,9.12-.06,13.69-.08,4.48-.02,8.96-.06,13.44-.1,9.79-.08,19.59-.12,29.38-.15,2.73,0,5.46-.02,8.19-.03Z"/>
  <path class="cls-2" d="M1134.77,184.89c.75,0,1.5.01,2.27.02.81,0,1.62,0,2.45,0,.85,0,1.7.02,2.58.03.85,0,1.71,0,2.59.01,2.12.01,4.23.03,6.35.05-.72,10.11-2.37,20-4,30h18c-.46,5.45-.93,10.63-2,16h-19c-.38,2.33-.75,4.67-1.14,7.07-.38,2.36-.76,4.72-1.14,7.08-.27,1.69-.54,3.37-.81,5.06-1.4,8.74-2.82,17.47-4.42,26.17q-3.31,17.69-3.49,35.61c5.48,1.83,10.45,1.11,16,0-.33,4.95-.66,9.9-1,15-7.08,4.04-15.39,4.24-23.29,2.5-4.83-1.86-8.64-5.15-10.8-9.86-3.42-9.89-1.23-19.89.59-29.89.27-1.56.54-3.11.81-4.67.72-4.15,1.47-8.3,2.21-12.45.65-3.63,1.3-7.26,1.94-10.89,1.82-10.25,3.67-20.5,5.53-30.74h-15c.66-5.28,1.32-10.56,2-16h16c.1-1.63.21-3.26.31-4.94.45-5.48,1.24-10.84,2.19-16.25.13-.75.26-1.51.4-2.29q1.17-6.47,3.87-6.64Z"/>
  <path class="cls-1" d="M213,259h116c1.01,3.03,1.05,4.74.88,7.89-.05.94-.1,1.88-.15,2.84-.06.98-.11,1.95-.17,2.96-.05.99-.1,1.98-.16,2.99-.13,2.44-.26,4.88-.4,7.32-11.87.51-23.75.9-35.63,1.14-5.52.11-11.03.27-16.55.52q-40.11,1.79-51.42-8.03c-4.82-4.6-9.12-9.81-12.4-15.62v-2Z"/>
  <path class="cls-2" d="M1185,215h19c-.62,11.98-2.68,23.59-4.78,35.38-.38,2.15-.76,4.3-1.13,6.45-.79,4.48-1.58,8.95-2.37,13.43-1.02,5.74-2.03,11.48-3.04,17.23-.78,4.43-1.56,8.85-2.34,13.27-.37,2.12-.75,4.24-1.12,6.36-.52,2.95-1.04,5.9-1.57,8.85-.15.88-.31,1.75-.47,2.65-.14.8-.29,1.6-.43,2.43-.12.7-.25,1.39-.37,2.11q-.39,1.85-1.39,4.85h-19c.62-6.94,1.55-13.73,2.77-20.59.18-1.01.35-2.01.53-3.05.58-3.29,1.16-6.58,1.74-9.87.4-2.29.8-4.59,1.21-6.88,1.05-6.01,2.11-12.03,3.17-18.04,1.08-6.15,2.16-12.29,3.24-18.44,2.11-12.04,4.23-24.08,6.35-36.12Z"/>
  <path class="cls-2" d="M1206,170c2.93,1.8,4.47,2.94,6,6,.55,5.01.56,8.9-1.75,13.44-2.64,3.01-4.63,5.25-8.65,6.03q-6.86.08-10.66-2.78c-3.06-4.25-3.37-7.53-2.94-12.69,3.51-8.88,8.89-11.37,18-10Z"/>
</svg>