<?xml version="1.0" encoding="UTF-8"?>
<svg version="1.1" xmlns="http://www.w3.org/2000/svg" width="1611" height="528">
<path d="M0 0 C11.55 0 23.1 0 35 0 C35.04207996 14.10993821 34.90260174 28.19557763 34.5625 42.30078125 C34.51744808 44.24374409 34.47261201 46.18671195 34.42797852 48.12968445 C34.31174537 53.16497886 34.19264454 58.2002012 34.07287598 63.2354126 C33.95044368 68.40494706 33.83082073 73.57454653 33.7109375 78.74414062 C33.47665529 88.82949136 33.23933325 98.91476795 33 109 C33.18461257 108.4443187 33.36922514 107.88863741 33.55943203 107.31611729 C38.04606939 93.81208846 42.5360046 80.30916 47.02963924 66.80745792 C49.20262213 60.27818482 51.37447612 53.74854021 53.54370117 47.21801758 C55.63527275 40.92128375 57.72995237 34.62558963 59.82657051 28.33053398 C60.62784406 25.92300448 61.42805762 23.51512193 62.22721672 21.10688972 C63.3426423 17.74619481 64.46175594 14.38675018 65.58178711 11.02758789 C66.08133408 9.51816116 66.08133408 9.51816116 66.5909729 7.97824097 C66.89525711 7.06813766 67.19954132 6.15803436 67.51304626 5.22035217 C67.90987814 4.02709116 67.90987814 4.02709116 68.31472683 2.80972385 C69 1 69 1 70 0 C81.22 0 92.44 0 104 0 C104 35.64 104 71.28 104 108 C119.07427128 61.37142985 119.07427128 61.37142985 133.94775391 14.67871094 C134.21889511 13.82241089 134.49003632 12.96611084 134.76939392 12.0838623 C135.26868243 10.50692333 135.76663411 8.92956017 136.26295471 7.35168457 C137.88733773 2.22532455 137.88733773 2.22532455 139 0 C150.55 0 162.1 0 174 0 C170.6249738 11.25008734 170.6249738 11.25008734 169.20092773 15.13110352 C168.71675133 16.45726936 168.71675133 16.45726936 168.22279358 17.81022644 C167.70838966 19.20547295 167.70838966 19.20547295 167.18359375 20.62890625 C166.63106178 22.13841606 166.63106178 22.13841606 166.06736755 23.67842102 C164.86021626 26.97414989 163.64891044 30.26833454 162.4375 33.5625 C161.58390806 35.89004905 160.73055914 38.21768725 159.87744141 40.54541016 C157.68078989 46.53675405 155.48062546 52.52680158 153.27960205 58.51654053 C151.67544414 62.88353812 150.07359977 67.25138179 148.47201538 71.61932373 C140.86423847 92.36758249 133.23264812 113.10709979 125.58087158 133.83917236 C124.82347725 135.89157234 124.06643326 137.94410163 123.30975342 139.99676514 C122.26885506 142.81988599 121.22645505 145.64244752 120.18359375 148.46484375 C119.71935753 149.72507103 119.71935753 149.72507103 119.2457428 151.01075745 C117.11451639 156.77096722 117.11451639 156.77096722 116 159 C103.46 159 90.92 159 78 159 C77.97494385 156.22988525 77.9498877 153.45977051 77.92407227 150.60571289 C77.84044052 141.43350917 77.75177546 132.26135901 77.66066074 123.08922672 C77.60559416 117.53045102 77.55220102 111.97166993 77.50268555 106.4128418 C77.45480103 101.04412431 77.40245113 95.67546692 77.34705925 90.30682182 C77.32674433 88.26282697 77.3080141 86.21881571 77.29092598 84.17479134 C77.26663971 81.30274684 77.23662072 78.43081339 77.20532227 75.55883789 C77.1995668 74.72157669 77.19381134 73.88431549 77.18788147 73.02168274 C77.12134344 67.61854829 76.66945322 62.36281789 76 57 C75.60433838 58.14210937 75.20867676 59.28421875 74.80102539 60.4609375 C66.83157617 83.45654328 58.81354392 106.43421365 50.6875 129.375 C50.32206085 130.40737793 49.9566217 131.43975586 49.58010864 132.50341797 C48.5374713 135.44794418 47.4936265 138.39203883 46.44921875 141.3359375 C46.14360016 142.19867279 45.83798157 143.06140808 45.52310181 143.95028687 C45.23405975 144.76381622 44.9450177 145.57734558 44.6472168 146.41552734 C44.40013474 147.11173187 44.15305267 147.8079364 43.89848328 148.52523804 C42.62708333 152.02715322 41.30813477 155.51164061 40 159 C27.13 159 14.26 159 1 159 C0.11004834 125.34300923 -0.12813788 91.73075223 -0.06866455 58.06402588 C-0.05820201 51.48474464 -0.05381927 44.90545914 -0.04882812 38.32617188 C-0.03828897 25.55076885 -0.02079172 12.77539045 0 0 Z " fill="#602421" transform="translate(346,169)"/>
<path d="M0 0 C0.79921875 -0.01611328 1.5984375 -0.03222656 2.421875 -0.04882812 C11.93676606 -0.05652626 19.66282187 2.79096606 26.625 9.3125 C36.37213 20.16224652 38.24174457 33.09417531 37.625 47.3125 C37.25985355 51.18491297 36.74256165 55.02571201 36.1875 58.875 C36.05279297 59.87080078 35.91808594 60.86660156 35.77929688 61.89257812 C34.75988963 69.17761037 34.75988963 69.17761037 33.625 70.3125 C31.81444975 70.40626053 30.00022799 70.4299411 28.18725586 70.42602539 C27.02612778 70.42594986 25.86499969 70.42587433 24.66868591 70.42579651 C22.77340904 70.41805458 22.77340904 70.41805458 20.83984375 70.41015625 C19.55388809 70.4087413 18.26793243 70.40732635 16.94300842 70.40586853 C13.51856557 70.40204418 10.09416491 70.39221462 6.66973877 70.38116455 C3.17761811 70.37094864 -0.31450934 70.36637053 -3.80664062 70.36132812 C-10.66277778 70.35059227 -17.51888687 70.33351684 -24.375 70.3125 C-24.28724337 72.52154631 -24.17905633 74.72978593 -24.0625 76.9375 C-24.00449219 78.16726563 -23.94648437 79.39703125 -23.88671875 80.6640625 C-23.23294319 85.32533251 -21.88806601 88.84320037 -18.484375 92.1484375 C-14.55069538 94.31924588 -10.70678642 94.2347094 -6.375 93.3125 C-1.77146566 90.4807461 1.48355037 86.65480958 4.625 82.3125 C9.41714507 83.97565623 13.4864273 86.55905657 17.75 89.25 C18.46542969 89.69279297 19.18085937 90.13558594 19.91796875 90.59179688 C20.95244141 91.24051758 20.95244141 91.24051758 22.0078125 91.90234375 C22.63059082 92.29284912 23.25336914 92.68335449 23.89501953 93.08569336 C25.67511439 94.34803836 27.12927642 95.72820252 28.625 97.3125 C20.3284095 109.96480051 10.90711422 120.22860849 -4.328125 123.84375 C-16.16759329 125.66520666 -28.80240814 125.0521985 -39.1875 118.625 C-49.39118503 111.13860066 -54.6722321 101.56825146 -56.71484375 89.265625 C-59.78230129 66.2386835 -54.52222817 41.78309835 -41.4609375 22.484375 C-30.74750157 8.56971319 -17.90451302 -0.07150365 0 0 Z M-14.375 33.3125 C-17.34413854 38.46439632 -19.268813 43.48475338 -20.375 49.3125 C-15.89584672 49.34136338 -11.41671709 49.35925187 -6.9375 49.375 C-5.65810547 49.38337891 -4.37871094 49.39175781 -3.06054688 49.40039062 C-1.84560547 49.40361328 -0.63066406 49.40683594 0.62109375 49.41015625 C1.74700928 49.41539307 2.8729248 49.42062988 4.03295898 49.42602539 C6.55470871 49.60795448 6.55470871 49.60795448 7.625 48.3125 C7.77827614 46.08704838 7.84703074 43.85554841 7.875 41.625 C7.90078125 40.40425781 7.9265625 39.18351562 7.953125 37.92578125 C7.59588834 33.99192522 6.71284593 31.64427283 4.625 28.3125 C1.50407156 26.23188104 -0.45178296 25.69670422 -4.1875 25.8203125 C-8.6952086 26.83454693 -11.5465444 29.80110533 -14.375 33.3125 Z " fill="#602421" transform="translate(562.375,207.6875)"/>
<path d="M0 0 C0.74886475 0.00523682 1.49772949 0.01047363 2.26928711 0.01586914 C3.07817383 0.0190918 3.88706055 0.02231445 4.72045898 0.02563477 C5.5705957 0.03401367 6.42073242 0.04239258 7.29663086 0.05102539 C8.15063477 0.05553711 9.00463867 0.06004883 9.88452148 0.06469727 C12.00108749 0.07652166 14.11761771 0.0944577 16.23413086 0.11352539 C15.51744285 10.2248405 13.86528563 20.11383747 12.23413086 30.11352539 C18.17413086 30.11352539 24.11413086 30.11352539 30.23413086 30.11352539 C29.77430794 35.56571142 29.30784098 40.74497481 28.23413086 46.11352539 C21.96413086 46.11352539 15.69413086 46.11352539 9.23413086 46.11352539 C8.85901367 48.44801758 8.48389648 50.78250977 8.09741211 53.18774414 C7.71687743 55.54887021 7.33578912 57.90990635 6.95465088 60.27093506 C6.68275635 61.95692516 6.41139355 63.6430011 6.14056396 65.3291626 C4.73674877 74.06575901 3.31948505 82.79661204 1.72241211 91.50024414 C-1.584769 109.1888053 -1.584769 109.1888053 -1.76586914 127.11352539 C3.71065156 128.93903229 8.68144562 128.22406244 14.23413086 127.11352539 C13.90413086 132.06352539 13.57413086 137.01352539 13.23413086 142.11352539 C6.15910881 146.15639513 -2.15391711 146.35103276 -10.05102539 144.60961914 C-14.8859995 142.75001371 -18.68838157 139.45517477 -20.85375977 134.74926758 C-24.2750621 124.86265624 -22.08164307 114.85582034 -20.26586914 104.86352539 C-19.99371192 103.30741292 -19.72274026 101.75109268 -19.45288086 100.19458008 C-18.72880034 96.04196486 -17.98640853 91.89283795 -17.2388916 87.74438477 C-16.58625314 84.11453598 -15.94196613 80.48321854 -15.29705811 76.85198975 C-13.47578128 66.60174527 -11.62923077 56.35619653 -9.76586914 46.11352539 C-12.24510715 46.08667444 -14.72405754 46.06675992 -17.20336914 46.05102539 C-17.91041992 46.04264648 -18.6174707 46.03426758 -19.34594727 46.02563477 C-21.15280473 46.01698951 -22.95974517 46.06132528 -24.76586914 46.11352539 C-25.09586914 46.44352539 -25.42586914 46.77352539 -25.76586914 47.11352539 C-27.45102471 47.35933895 -29.13914492 47.58493481 -30.82836914 47.80102539 C-37.75408408 49.03904179 -42.07308966 51.73349361 -46.44946289 57.22680664 C-51.74655549 64.87522713 -55.22066949 72.54460154 -57.25024414 81.60961914 C-57.45881042 82.5137706 -57.66737671 83.41792206 -57.88226318 84.34947205 C-60.32945698 95.21784717 -62.17679862 106.19180675 -64.01586914 117.17602539 C-64.54088915 120.2752359 -65.06785275 123.37410624 -65.59613037 126.47276306 C-65.92008709 128.37663924 -66.2418587 130.28088896 -66.56109619 132.18556213 C-66.77702423 133.46486855 -66.77702423 133.46486855 -66.99731445 134.77001953 C-67.18454071 135.887463 -67.18454071 135.887463 -67.37554932 137.02748108 C-67.75827272 139.07292669 -68.26116626 141.09471387 -68.76586914 143.11352539 C-75.36586914 143.11352539 -81.96586914 143.11352539 -88.76586914 143.11352539 C-88.33242188 140.61419434 -87.89897461 138.11486328 -87.45239258 135.53979492 C-86.00130239 127.17040661 -84.55294711 118.80054658 -83.10584641 110.43046761 C-82.23060909 105.36854411 -81.354524 100.30677076 -80.47631836 95.24536133 C-76.71470715 73.56239342 -72.96503347 51.88806446 -69.76586914 30.11352539 C-63.49586914 30.11352539 -57.22586914 30.11352539 -50.76586914 30.11352539 C-51.42586914 36.05352539 -52.08586914 41.99352539 -52.76586914 48.11352539 C-51.79649414 46.44290039 -50.82711914 44.77227539 -49.82836914 43.05102539 C-45.28127439 35.89373223 -39.81667515 30.9466912 -31.76586914 28.11352539 C-28.14086914 27.36352539 -28.14086914 27.36352539 -24.76586914 27.11352539 C-23.77586914 27.77352539 -22.78586914 28.43352539 -21.76586914 29.11352539 C-19.17701743 29.41343608 -16.67437832 29.62217764 -14.07836914 29.73852539 C-13.37647461 29.77719727 -12.67458008 29.81586914 -11.95141602 29.85571289 C-10.22332259 29.94975879 -8.49463239 30.03272219 -6.76586914 30.11352539 C-6.72848633 29.44450195 -6.69110352 28.77547852 -6.65258789 28.08618164 C-6.2102241 21.62420077 -5.38377308 15.30029887 -4.26586914 8.92602539 C-4.135271 8.17135986 -4.00467285 7.41669434 -3.87011719 6.63916016 C-2.70055647 0.1736152 -2.70055647 0.1736152 0 0 Z M-23.76586914 33.11352539 C-22.76586914 36.11352539 -22.76586914 36.11352539 -22.76586914 36.11352539 Z M-24.76586914 38.11352539 C-23.76586914 42.11352539 -23.76586914 42.11352539 -23.76586914 42.11352539 Z " fill="#602421" transform="translate(986.765869140625,184.886474609375)"/>
<path d="M0 0 C0.74830078 0.72509766 0.74830078 0.72509766 1.51171875 1.46484375 C1.51171875 5.79414697 -1.05476994 8.06416558 -3.67578125 11.27734375 C-4.39991211 12.18323242 -4.39991211 12.18323242 -5.13867188 13.10742188 C-8.20697769 16.93353745 -11.33899237 20.7052722 -14.48828125 24.46484375 C-16.50306364 23.46197001 -18.50995855 22.45328814 -20.49609375 21.39453125 C-26.18664384 18.55975537 -31.15003512 17.43353591 -37.48828125 18.46484375 C-41.13737386 19.72939578 -41.13737386 19.72939578 -43.48828125 22.46484375 C-44.48825882 25.18637361 -44.87935198 27.5880632 -44.48828125 30.46484375 C-42.62299975 34.39206581 -40.77030224 36.26464392 -36.98828125 38.33984375 C-36.10398437 38.84644531 -35.2196875 39.35304687 -34.30859375 39.875 C-33.37789062 40.39964844 -32.4471875 40.92429687 -31.48828125 41.46484375 C-22.49719428 46.63285081 -13.15608095 52.72224344 -9.94921875 63.17578125 C-7.34431587 76.11199385 -8.5190534 87.17267457 -15.48828125 98.46484375 C-17.86328125 101.21484375 -17.86328125 101.21484375 -20.48828125 103.46484375 C-21.25785156 104.20154297 -21.25785156 104.20154297 -22.04296875 104.953125 C-31.99846247 114.19751202 -44.27273434 116.04512602 -57.41796875 115.71484375 C-71.00072203 115.0750532 -82.07195396 109.93174666 -92.48828125 101.46484375 C-91.20848671 98.71248071 -89.82459917 96.48375997 -87.84375 94.1875 C-87.33134766 93.59130859 -86.81894531 92.99511719 -86.29101562 92.38085938 C-85.49147461 91.46336914 -85.49147461 91.46336914 -84.67578125 90.52734375 C-84.15435547 89.91955078 -83.63292969 89.31175781 -83.09570312 88.68554688 C-80.02313683 85.12965554 -76.85453016 81.74398086 -73.48828125 78.46484375 C-72.89660156 78.94695312 -72.30492187 79.4290625 -71.6953125 79.92578125 C-70.51001953 80.87324219 -70.51001953 80.87324219 -69.30078125 81.83984375 C-68.52347656 82.46632813 -67.74617187 83.0928125 -66.9453125 83.73828125 C-61.0638477 87.87120246 -55.49476872 88.14968839 -48.48828125 87.46484375 C-45.40196579 86.20512315 -44.10055436 85.31036376 -42.17578125 82.65234375 C-40.85081904 78.43655489 -40.92705011 75.5751713 -42.93359375 71.60546875 C-45.88309064 67.3741506 -50.27528839 65.44389816 -54.73828125 63.08984375 C-64.0465114 57.91529767 -72.21526644 53.04927946 -75.86328125 42.49609375 C-78.03563894 31.96015897 -77.46548865 21.10612299 -72.48828125 11.46484375 C-72.16085937 10.82417969 -71.8334375 10.18351562 -71.49609375 9.5234375 C-65.75847186 0.16315654 -54.60611066 -5.36649424 -44.32421875 -8.11328125 C-28.56411149 -10.45776002 -13.37887258 -9.055359 0 0 Z " fill="#602421" transform="translate(691.48828125,216.53515625)"/>
<path d="M0 0 C5.90410675 -0.07481809 11.80793032 -0.12891456 17.71240234 -0.16479492 C19.71603205 -0.17977142 21.71962961 -0.20015981 23.72314453 -0.22631836 C53.45474352 -0.60445092 53.45474352 -0.60445092 64.90234375 9.71484375 C73.11104972 18.20122265 74.34355706 27.0873012 74.4375 38.5 C74.44773193 39.46107666 74.45796387 40.42215332 74.46850586 41.41235352 C74.30061436 55.20880822 69.55316534 69.08951981 59.98046875 79.25390625 C50.61009817 87.51535723 39.4214298 91.15230721 27.0703125 91.09765625 C25.13671875 91.09282227 25.13671875 91.09282227 23.1640625 91.08789062 C21.81770764 91.07953733 20.47135348 91.07107241 19.125 91.0625 C17.75520996 91.0574783 16.38541815 91.05291657 15.015625 91.04882812 C11.6770381 91.03707254 8.33854185 91.02063964 5 91 C4.84442627 91.96897217 4.68885254 92.93794434 4.52856445 93.9362793 C1.80829922 110.86330923 -0.92537286 127.7880093 -3.8125 144.6875 C-4.0189917 145.90848389 -4.2254834 147.12946777 -4.43823242 148.38745117 C-4.63006104 149.50095947 -4.82188965 150.61446777 -5.01953125 151.76171875 C-5.18557861 152.73069092 -5.35162598 153.69966309 -5.52270508 154.69799805 C-6 157 -6 157 -7 159 C-13.6 159 -20.2 159 -27 159 C-25.71438075 148.97696242 -24.22308764 139.03355476 -22.47802734 129.07836914 C-22.23117754 127.65749929 -21.98458829 126.23658415 -21.73823547 124.81562805 C-21.07777548 121.01039239 -20.41373723 117.20578944 -19.74898481 113.40130162 C-19.05152216 109.40588032 -18.35744895 105.40987021 -17.66299438 101.41392517 C-16.35148933 93.87041133 -15.0369989 86.32742101 -13.72139704 78.7846207 C-12.22205604 70.18750464 -10.72610199 61.5898003 -9.23041224 52.99204838 C-6.15733871 35.32738165 -3.08007732 17.66344681 0 0 Z M17 18 C15.71479546 25.49249223 14.43343992 32.98563529 13.15478516 40.47924805 C12.71915316 43.02953069 12.28263332 45.57966184 11.84521484 48.12963867 C11.21740145 51.79045986 10.59276089 55.45181023 9.96875 59.11328125 C9.77188599 60.2571077 9.57502197 61.40093414 9.37219238 62.579422 C9.19200562 63.64029526 9.01181885 64.70116852 8.82617188 65.79418945 C8.58634583 67.19650566 8.58634583 67.19650566 8.3416748 68.62715149 C7.92873823 71.09534208 7.92873823 71.09534208 8 74 C11.79139846 74.11771717 15.58231735 74.18775198 19.375 74.25 C20.43589844 74.28351563 21.49679687 74.31703125 22.58984375 74.3515625 C30.98116235 74.45452346 37.95884634 73.25821778 44.62109375 67.88671875 C53.62814447 56.98140787 55.28185901 45.91183768 54 32 C52.47955872 25.96167605 48.99532527 22.50735604 44 19 C40.8815675 17.9605225 38.72524414 17.88505162 35.45703125 17.90234375 C33.84731445 17.90717773 33.84731445 17.90717773 32.20507812 17.91210938 C31.08552734 17.92048828 29.96597656 17.92886719 28.8125 17.9375 C27.11577148 17.94426758 27.11577148 17.94426758 25.38476562 17.95117188 C22.58979073 17.96296502 19.7949218 17.9794235 17 18 Z " fill="#602421" transform="translate(726,169)"/>
<path d="M0 0 C71.61 0 143.22 0 217 0 C217 8.58 217 17.16 217 26 C192.1392165 26.23164863 167.27869361 26.410026 142.4170475 26.51812172 C130.8728724 26.56965037 119.32938084 26.63988092 107.78564453 26.75439453 C97.72216242 26.85417633 87.6591754 26.91860788 77.59521234 26.94088495 C72.26782388 26.95390424 66.94185155 26.9844219 61.61491776 27.05730057 C56.5961382 27.12540416 51.57935173 27.14607192 46.56015396 27.13107681 C44.72270354 27.13381805 42.88518347 27.1535808 41.04813385 27.19205475 C27.17215934 27.46830112 27.17215934 27.46830112 21.74967575 23.80289841 C19.2612963 21.32308302 17.1418827 18.77762411 15 16 C13.8247985 14.96126478 12.6211181 13.95250151 11.375 13 C10.199375 12.01 10.199375 12.01 9 11 C9 10.34 9 9.68 9 9 C8.34 9 7.68 9 7 9 C5.2734375 7.28515625 5.2734375 7.28515625 3.375 5.0625 C2.74335937 4.33160156 2.11171875 3.60070312 1.4609375 2.84765625 C0 1 0 1 0 0 Z " fill="#602421" transform="translate(113,214)"/>
<path d="M0 0 C9.45159593 7.26016395 13.80759652 17.3665402 15.40625 28.94140625 C17.83366526 52.74662634 11.75991391 78.34668901 -2 98 C-9.08094919 106.43757965 -17.69375688 114.40402214 -29 116 C-39.04072627 116.69998206 -47.83752484 116.60249491 -56.17578125 110.375 C-66.4317113 101.10410278 -69.27683941 89.24258357 -70.21484375 75.95703125 C-70.97655464 51.91743571 -63.55233868 25.7915512 -47 8 C-34.83090977 -3.72363269 -15.38090109 -9.77529441 0 0 Z M-34.5 20.9375 C-46.8797835 37.66250552 -51.44611719 60.53187977 -50 81 C-48.82921987 88.04177246 -47.16767688 93.87424234 -41.25 98.3125 C-36.47539443 99.77140726 -32.54990975 99.64884673 -28.0234375 97.75390625 C-15.45572287 90.46333277 -10.36445502 75.92920632 -6.8125 62.609375 C-3.56994783 48.20496055 -0.77299519 30.76532802 -8.9375 17.4375 C-11.49779886 14.41169226 -13.43422359 13.22220589 -17.3671875 12.6640625 C-25.40961389 12.53879106 -29.31184884 14.78858011 -34.5 20.9375 Z " fill="#602421" transform="translate(1288,216)"/>
<path d="M0 0 C9.45159593 7.26016395 13.80759652 17.3665402 15.40625 28.94140625 C17.83366526 52.74662634 11.75991391 78.34668901 -2 98 C-9.08094919 106.43757965 -17.69375688 114.40402214 -29 116 C-39.04072627 116.69998206 -47.83752484 116.60249491 -56.17578125 110.375 C-66.4317113 101.10410278 -69.27683941 89.24258357 -70.21484375 75.95703125 C-70.97655464 51.91743571 -63.55233868 25.7915512 -47 8 C-34.83090977 -3.72363269 -15.38090109 -9.77529441 0 0 Z M-34.5 20.9375 C-46.8797835 37.66250552 -51.44611719 60.53187977 -50 81 C-48.82921987 88.04177246 -47.16767688 93.87424234 -41.25 98.3125 C-36.47539443 99.77140726 -32.54990975 99.64884673 -28.0234375 97.75390625 C-15.45572287 90.46333277 -10.36445502 75.92920632 -6.8125 62.609375 C-3.56994783 48.20496055 -0.77299519 30.76532802 -8.9375 17.4375 C-11.49779886 14.41169226 -13.43422359 13.22220589 -17.3671875 12.6640625 C-25.40961389 12.53879106 -29.31184884 14.78858011 -34.5 20.9375 Z " fill="#602421" transform="translate(869,216)"/>
<path d="M0 0 C5.83544555 3.84984971 9.50419372 10.36528115 10.9375 17.125 C11.58105134 29.90337659 10.3982916 41.98171629 8.12890625 54.53515625 C7.83853614 56.20692252 7.54949632 57.87892033 7.26170349 59.5511322 C6.51190607 63.88460829 5.74270614 68.21441414 4.96948242 72.54376221 C4.33795128 76.10002473 3.72100469 79.65874922 3.10459995 83.21765995 C2.36768653 87.47019937 1.62412436 91.72156524 0.87890625 95.97265625 C0.6669823 97.18378932 0.6669823 97.18378932 0.45077705 98.41938972 C0.05225889 100.6878857 -0.35081999 102.95551716 -0.75561523 105.22290039 C-0.98433823 106.51128311 -1.21306122 107.79966583 -1.44871521 109.12709045 C-2.0625 112.125 -2.0625 112.125 -3.0625 114.125 C-9.3325 114.125 -15.6025 114.125 -22.0625 114.125 C-20.96843603 104.15895755 -19.45166701 94.34097662 -17.6796875 84.47265625 C-17.45968079 83.24026215 -17.23967407 82.00786804 -17.01300049 80.73812866 C-16.09261844 75.59336872 -15.16925646 70.44929402 -14.22509766 65.30883789 C-8.50441635 42.23119992 -8.50441635 42.23119992 -11.90966797 19.74633789 C-14.55568639 16.52448489 -16.05835505 16.24795652 -20.125 15.75 C-26.74188939 16.38017994 -31.75918604 18.66760501 -36.33984375 23.5546875 C-43.99437078 33.61818114 -46.72047 43.94897544 -48.875 56.25 C-49.12239909 57.61863635 -49.37063066 58.98712244 -49.61962891 60.35546875 C-50.29976877 64.11342622 -50.96476451 67.87390741 -51.62518311 71.63537598 C-52.08704291 74.2647216 -52.55138507 76.89362085 -53.01611328 79.52246094 C-55.05291739 91.05297184 -57.06474376 102.58766221 -59.0625 114.125 C-65.6625 114.125 -72.2625 114.125 -79.0625 114.125 C-78.66458252 111.83884766 -78.26666504 109.55269531 -77.85668945 107.19726562 C-76.51710023 99.49851957 -75.18058591 91.79924177 -73.84544086 84.09972382 C-73.03875196 79.44823466 -72.23114312 74.79690981 -71.42114258 70.14599609 C-67.42038758 47.16970318 -63.56634398 24.18268585 -60.0625 1.125 C-53.7925 1.125 -47.5225 1.125 -41.0625 1.125 C-41.3925 6.075 -41.7225 11.025 -42.0625 16.125 C-40.6084375 14.1140625 -40.6084375 14.1140625 -39.125 12.0625 C-29.82531359 0.12727493 -14.90852259 -7.17536036 0 0 Z " fill="#602421" transform="translate(1395.0625,213.875)"/>
<path d="M0 0 C6.08174736 5.13183634 9.13830033 11.27453005 10.32035828 19.12858582 C10.47277157 21.3295423 10.51152194 23.49690594 10.4921875 25.703125 C10.48750458 26.54643372 10.48282166 27.38974243 10.47799683 28.25860596 C10.15242354 41.23735777 7.44409546 54.01325436 5.125 66.75 C4.20462993 71.91034909 3.29322942 77.07226186 2.3828125 82.234375 C2.16651184 83.45120972 1.95021118 84.66804443 1.72735596 85.92175293 C0.19984153 94.59801099 -1.03572845 103.24397098 -2 112 C-7.61 112 -13.22 112 -19 112 C-18.67 107.71 -18.34 103.42 -18 99 C-18.86625 100.216875 -19.7325 101.43375 -20.625 102.6875 C-25.25044383 108.80432525 -30.22580855 113.40087834 -38 115 C-45.8971511 115.75650279 -53.53749453 116.13994621 -60 111 C-67.03257077 104.34586353 -68.94541515 97.47654379 -69.25 87.9375 C-69.06437972 75.50094091 -65.55555045 65.18118389 -57.1171875 55.9375 C-43.83577303 43.46264916 -26.36508969 41.76175944 -9 42 C-7.2100313 29.00242351 -7.2100313 29.00242351 -11 17 C-14.90225181 13.67655109 -18.80454826 12.68198117 -23.875 12.9375 C-32.14874828 14.19765551 -38.93201183 18.41106353 -45 24 C-46.36940568 22.42982807 -47.72012895 20.84334609 -49.0625 19.25 C-49.81660156 18.36828125 -50.57070312 17.4865625 -51.34765625 16.578125 C-53 14 -53 14 -52.9140625 11.84765625 C-48.98259206 3.9007096 -37.10014446 -0.83823801 -29.08203125 -3.6796875 C-19.61274783 -5.13650033 -8.21349899 -5.47052935 0 0 Z M-44 66 C-49.45464283 72.59566505 -51.37786454 79.7767325 -50.875 88.25 C-50.30435768 92.52318206 -49.30793684 95.05961169 -46 98 C-42.64244984 100.27128393 -39.99876051 100.06932541 -36.125 99.5 C-28.42207468 97.66270966 -24.66516066 93.26566491 -20.3125 86.875 C-14.68059284 77.54320764 -12.4429207 67.70799049 -11 57 C-23.33277445 56.51389064 -34.83100033 56.78932306 -44 66 Z " fill="#602421" transform="translate(1084,216)"/>
<path d="M0 0 C3.61394952 0.03536718 7.22795825 0.06327074 10.84196472 0.09210706 C17.62664903 0.1473047 24.41125944 0.20880957 31.19586563 0.2728284 C38.94490643 0.34562178 46.69400488 0.41100643 54.44311523 0.47589886 C70.32907286 0.60908996 86.21492 0.7521387 102.10075378 0.89946485 C102.10075378 9.47946485 102.10075378 18.05946485 102.10075378 26.89946485 C83.98547927 27.23347825 65.87092344 27.52963604 47.75405121 27.75692582 C39.34167739 27.86367555 30.93019438 27.98734721 22.51872253 28.15117383 C15.18541176 28.29395829 7.85242955 28.40466997 0.51807547 28.47722834 C-3.36414449 28.51674595 -7.24465653 28.57207002 -11.12597656 28.66583943 C-14.78368722 28.7536991 -18.43946276 28.79847204 -22.09818268 28.81103253 C-24.07239906 28.82879301 -26.04605282 28.89150473 -28.01930237 28.95578504 C-36.57852749 28.92729343 -36.57852749 28.92729343 -40.43260193 25.92792058 C-42.44714668 23.67523481 -44.18069049 21.38119485 -45.89924622 18.89946485 C-47.5438407 17.21101451 -49.20760463 15.5407766 -50.89924622 13.89946485 C-52.84071777 12.00765416 -54.77694906 10.11059756 -56.71174622 8.21196485 C-57.21383606 7.72663281 -57.7159259 7.24130078 -58.23323059 6.74126172 C-59.49341894 5.49821879 -60.70115665 4.20246593 -61.89924622 2.89946485 C-61.89924622 2.23946485 -61.89924622 1.57946485 -61.89924622 0.89946485 C-41.25087689 0.10301065 -20.6647357 -0.21033165 0 0 Z " fill="#602522" transform="translate(227.8992462158203,299.10053515434265)"/>
<path d="M0 0 C4.46460071 -0.02058079 8.92918677 -0.03560769 13.39382172 -0.04636383 C15.05695885 -0.05102004 16.72009247 -0.05726505 18.38321686 -0.06526947 C20.69177564 -0.07579176 23.00025803 -0.07958708 25.30883789 -0.08178711 C26.60778992 -0.08543274 27.90674194 -0.08907837 29.24505615 -0.09283447 C34.67710208 0.05684401 40.09369622 0.57338012 45.5090332 1.0246582 C45.5090332 9.2746582 45.5090332 17.5246582 45.5090332 26.0246582 C32.93142829 27.27312032 20.39473345 27.16998671 7.7668457 27.1574707 C5.35187775 27.158146 2.93690986 27.1591179 0.52194214 27.16036987 C-4.52956797 27.16183903 -9.58106033 27.15971938 -14.63256836 27.1550293 C-21.04095837 27.14936326 -27.4493062 27.15259612 -33.85769463 27.15860176 C-38.84606226 27.16225491 -43.83442028 27.16104671 -48.82278824 27.15847397 C-51.18178437 27.15781616 -53.54078142 27.15859202 -55.89977646 27.16095352 C-67.77110058 27.17022373 -79.63103272 27.07619099 -91.49536133 26.64135742 C-92.96533727 26.59584338 -92.96533727 26.59584338 -94.46500969 26.54940987 C-95.36126627 26.51134161 -96.25752285 26.47327335 -97.18093872 26.43405151 C-97.96810839 26.40347593 -98.75527805 26.37290035 -99.56630135 26.34139824 C-101.4909668 26.0246582 -101.4909668 26.0246582 -103.4909668 24.0246582 C-101.22041599 20.94111673 -98.94947659 17.85786165 -96.6784668 14.7746582 C-96.03586914 13.90196289 -95.39327148 13.02926758 -94.73120117 12.13012695 C-94.10922852 11.28579102 -93.48725586 10.44145508 -92.84643555 9.5715332 C-92.27562256 8.79648438 -91.70480957 8.02143555 -91.11669922 7.22290039 C-90.31196167 6.13477051 -90.31196167 6.13477051 -89.4909668 5.0246582 C-89.11005386 4.33057861 -88.72914093 3.63649902 -88.33668518 2.92138672 C-86.4909668 1.0246582 -86.4909668 1.0246582 -83.31756592 0.50567627 C-81.3455722 0.4923526 -81.3455722 0.4923526 -79.33374023 0.47875977 C-78.24199242 0.46325325 -78.24199242 0.46325325 -77.12818909 0.44743347 C-74.70201839 0.41778839 -72.27668061 0.41649786 -69.8503418 0.4152832 C-68.13200355 0.40025805 -66.41367951 0.38352204 -64.69537354 0.36517334 C-60.13347831 0.32129402 -55.57177362 0.30150618 -51.00970459 0.28643799 C-46.52806965 0.26737056 -42.04667193 0.22496802 -37.56518555 0.18481445 C-27.77254947 0.10207418 -17.98002683 0.06250729 -8.18710327 0.03359985 C-5.45805554 0.02454905 -2.72903311 0.01268529 0 0 Z " fill="#602421" transform="translate(284.490966796875,170.975341796875)"/>
<path d="M0 0 C0.74886475 0.00523682 1.49772949 0.01047363 2.26928711 0.01586914 C3.07817383 0.0190918 3.88706055 0.02231445 4.72045898 0.02563477 C5.5705957 0.03401367 6.42073242 0.04239258 7.29663086 0.05102539 C8.15063477 0.05553711 9.00463867 0.06004883 9.88452148 0.06469727 C12.00108749 0.07652166 14.11761771 0.0944577 16.23413086 0.11352539 C15.51744285 10.2248405 13.86528563 20.11383747 12.23413086 30.11352539 C18.17413086 30.11352539 24.11413086 30.11352539 30.23413086 30.11352539 C29.77430794 35.56571142 29.30784098 40.74497481 28.23413086 46.11352539 C21.96413086 46.11352539 15.69413086 46.11352539 9.23413086 46.11352539 C8.85901367 48.44801758 8.48389648 50.78250977 8.09741211 53.18774414 C7.71687743 55.54887021 7.33578912 57.90990635 6.95465088 60.27093506 C6.68275635 61.95692516 6.41139355 63.6430011 6.14056396 65.3291626 C4.73674877 74.06575901 3.31948505 82.79661204 1.72241211 91.50024414 C-1.584769 109.1888053 -1.584769 109.1888053 -1.76586914 127.11352539 C3.71065156 128.93903229 8.68144562 128.22406244 14.23413086 127.11352539 C13.90413086 132.06352539 13.57413086 137.01352539 13.23413086 142.11352539 C6.15910881 146.15639513 -2.15391711 146.35103276 -10.05102539 144.60961914 C-14.8859995 142.75001371 -18.68838157 139.45517477 -20.85375977 134.74926758 C-24.2750621 124.86265624 -22.08164307 114.85582034 -20.26586914 104.86352539 C-19.99371192 103.30741292 -19.72274026 101.75109268 -19.45288086 100.19458008 C-18.72880034 96.04196486 -17.98640853 91.89283795 -17.2388916 87.74438477 C-16.58625314 84.11453598 -15.94196613 80.48321854 -15.29705811 76.85198975 C-13.47577668 66.60171941 -11.62724277 56.35658738 -9.76586914 46.11352539 C-14.71586914 46.11352539 -19.66586914 46.11352539 -24.76586914 46.11352539 C-24.10586914 40.83352539 -23.44586914 35.55352539 -22.76586914 30.11352539 C-17.48586914 30.11352539 -12.20586914 30.11352539 -6.76586914 30.11352539 C-6.66274414 28.48415039 -6.55961914 26.85477539 -6.45336914 25.17602539 C-6.00135382 19.69943392 -5.21427584 14.33382784 -4.26586914 8.92602539 C-4.135271 8.17135986 -4.00467285 7.41669434 -3.87011719 6.63916016 C-2.70055647 0.1736152 -2.70055647 0.1736152 0 0 Z " fill="#602421" transform="translate(1134.765869140625,184.886474609375)"/>
<path d="M0 0 C38.28 0 76.56 0 116 0 C117.01044795 3.03134384 117.05032949 4.74395943 116.87890625 7.88671875 C116.83056641 8.82451172 116.78222656 9.76230469 116.73242188 10.72851562 C116.67634766 11.70498047 116.62027344 12.68144531 116.5625 13.6875 C116.51029297 14.67556641 116.45808594 15.66363281 116.40429688 16.68164062 C116.27464694 19.12141676 116.13968258 21.56078105 116 24 C104.1259488 24.51390483 92.25461275 24.90264695 80.37163353 25.13986778 C74.85064564 25.2538465 69.33735532 25.40780912 63.82080078 25.65966797 C23.70764357 27.44480465 23.70764357 27.44480465 12.39698982 17.62497139 C7.57474932 13.02153698 3.27401094 7.81845082 0 2 C0 1.34 0 0.68 0 0 Z " fill="#612522" transform="translate(213,259)"/>
<path d="M0 0 C6.27 0 12.54 0 19 0 C18.38061489 11.98280795 16.3169852 23.58534113 14.21875 35.3828125 C13.84095351 37.53172566 13.46364235 39.68072419 13.08679199 41.82980347 C12.30042744 46.30681114 11.51001239 50.78307679 10.71630859 55.25878906 C9.69826811 60.99998894 8.68775685 66.74248126 7.67989349 72.48547554 C6.90294084 76.91064191 6.12344846 81.33535756 5.34303284 85.7599144 C4.96938139 87.87857759 4.59620004 89.99732375 4.22349548 92.11615372 C3.70411291 95.06500521 3.18164672 98.01329281 2.65820312 100.96142578 C2.50440689 101.83723801 2.35061066 102.71305023 2.19215393 103.61540222 C2.04918381 104.41691208 1.90621368 105.21842194 1.75891113 106.04421997 C1.6357679 106.73988131 1.51262466 107.43554264 1.38574982 108.15228462 C1 110 1 110 0 113 C-6.27 113 -12.54 113 -19 113 C-18.37684503 106.06190707 -17.45224076 99.26622809 -16.23413086 92.40966797 C-16.05842056 91.40358994 -15.88271027 90.3975119 -15.70167542 89.36094666 C-15.1261726 86.07074658 -14.54555213 82.78147243 -13.96484375 79.4921875 C-13.5623909 77.1972501 -13.16026056 74.90225612 -12.75843811 72.60720825 C-11.70457982 66.59305998 -10.6463652 60.57968629 -9.58721924 54.56646729 C-8.50536667 48.41977633 -7.42766665 42.27235753 -6.34960938 36.125 C-4.23711964 24.08261939 -2.11964008 12.0411241 0 0 Z " fill="#602421" transform="translate(1185,215)"/>
<path d="M0 0 C2.93423195 1.79646854 4.47205355 2.9441071 6 6 C6.54978069 11.0111158 6.56154513 14.89696493 4.25 19.4375 C1.60584321 22.44890078 -0.38183027 24.68425956 -4.40234375 25.46875 C-11.26715837 25.55337021 -11.26715837 25.55337021 -15.0625 22.6875 C-18.12670298 18.43715393 -18.43000542 15.16006503 -18 10 C-14.48809282 1.1201518 -9.1104962 -1.370997 0 0 Z " fill="#602421" transform="translate(1206,170)"/>
<path d="" fill="#622727" transform="translate(0,0)"/>
</svg>
